<?xml version="1.0" standalone="no"?>
<!DOCTYPE svg PUBLIC "-//W3C//DTD SVG 20010904//EN"
 "http://www.w3.org/TR/2001/REC-SVG-20010904/DTD/svg10.dtd">
<svg version="1.0" xmlns="http://www.w3.org/2000/svg"
 width="900.000000pt" height="900.000000pt" viewBox="0 0 900.000000 900.000000"
 preserveAspectRatio="xMidYMid meet">
<metadata>
Created by potrace 1.16, written by Peter Selinger 2001-2019
</metadata>
<g transform="translate(0.000000,900.000000) scale(0.100000,-0.100000)"
fill="#000000" stroke="none">
<path d="M4195 8989 c-1191 -85 -2281 -624 -3075 -1524 -981 -1111 -1346
-2633 -978 -4080 301 -1186 1101 -2219 2183 -2821 600 -333 1240 -514 1966
-555 420 -24 886 24 1324 136 969 250 1819 809 2441 1606 371 474 647 1037
799 1624 192 741 193 1494 3 2240 -371 1459 -1475 2654 -2903 3141 -177 61
-443 132 -606 163 -361 69 -797 95 -1154 70z m801 -328 c500 -65 920 -190
1349 -401 835 -410 1503 -1079 1915 -1915 224 -455 354 -908 412 -1430 17
-159 17 -671 0 -830 -57 -513 -189 -975 -407 -1420 -202 -412 -441 -750 -777
-1099 l-106 -110 -48 42 c-293 253 -670 453 -1129 597 -90 28 -210 76 -301
120 -145 70 -154 76 -249 171 -74 74 -105 114 -129 163 l-31 66 -3 348 -3 348
32 41 c115 145 216 352 313 643 47 140 47 140 88 159 23 11 69 47 103 80 106
107 174 244 201 406 27 163 15 281 -37 388 l-31 63 36 147 c68 284 105 556
113 837 24 836 -268 1323 -830 1387 l-99 11 -52 66 c-127 159 -235 213 -478
242 -137 16 -561 7 -688 -15 -399 -69 -663 -196 -896 -430 -283 -285 -431
-655 -475 -1191 -21 -253 2 -661 54 -984 l14 -85 -29 -61 c-79 -170 -50 -472
63 -661 39 -66 134 -166 178 -189 17 -8 31 -20 31 -27 0 -23 126 -329 183
-443 62 -126 144 -259 206 -335 l36 -44 0 -351 0 -350 -31 -65 c-98 -205 -281
-325 -699 -455 -428 -134 -810 -330 -1075 -553 l-95 -80 -43 40 c-85 78 -256
265 -354 387 -447 558 -739 1207 -857 1902 -47 279 -56 389 -56 709 0 320 9
430 56 710 110 647 365 1242 767 1790 219 298 559 637 863 862 647 477 1345
739 2179 818 159 15 643 4 816 -19z"/>
</g>
</svg>
