<?xml version="1.0" standalone="no"?>
<!DOCTYPE svg PUBLIC "-//W3C//DTD SVG 20010904//EN"
 "http://www.w3.org/TR/2001/REC-SVG-20010904/DTD/svg10.dtd">
<svg version="1.0" xmlns="http://www.w3.org/2000/svg"
 width="989.000000pt" height="529.000000pt" viewBox="0 0 989.000000 529.000000"
 preserveAspectRatio="xMidYMid meet">
<metadata>
Created by potrace 1.16, written by Peter Selinger 2001-2019
</metadata>
<g transform="translate(0.000000,529.000000) scale(0.100000,-0.100000)"
fill="#000000" stroke="none">
<path d="M2470 3802 l0 -548 32 -12 c21 -8 34 -9 36 -2 2 5 8 10 14 10 6 0 8
-6 5 -13 -3 -9 11 -22 39 -35 49 -24 78 -20 69 9 -5 14 0 22 19 29 14 5 26 14
26 19 0 5 10 7 22 3 14 -3 19 -1 14 6 -6 11 37 62 54 62 4 0 11 -6 14 -12 4
-7 4 3 1 22 -4 27 -2 31 6 18 5 -10 21 -18 34 -18 13 0 28 -7 33 -16 8 -15 10
-15 15 0 7 18 -11 66 -25 66 -4 0 -8 -9 -8 -20 0 -22 -25 -27 -33 -6 -6 15 26
46 48 46 8 0 15 9 15 20 0 11 5 20 11 20 18 0 39 -28 33 -44 -4 -12 0 -16 15
-16 14 0 21 6 21 20 0 11 5 20 10 20 6 0 10 5 10 10 0 6 -13 10 -30 10 -27 0
-30 3 -30 33 0 19 3 37 7 40 8 8 43 -22 43 -37 1 -6 11 -24 24 -40 18 -22 28
-27 46 -21 20 6 22 12 17 49 -4 31 -3 36 5 20 12 -26 68 -22 68 6 0 10 7 20
15 24 19 7 20 -21 1 -40 -8 -8 -26 -14 -40 -14 -30 0 -30 0 -15 -34 13 -28 49
-32 49 -5 0 12 7 15 24 12 19 -4 26 0 31 19 5 12 16 30 26 39 11 9 19 22 19
29 0 16 40 51 50 45 10 -6 26 70 22 103 -3 26 14 30 22 5 3 -10 4 -6 2 10 -2
19 1 27 12 27 11 0 13 8 9 33 -2 17 -1 50 3 72 4 22 8 30 9 18 1 -18 7 -23 30
-23 20 0 31 -6 34 -17 4 -14 5 -12 6 5 0 12 6 22 11 22 6 0 10 16 10 35 0 19
-4 35 -10 35 -5 0 -10 12 -10 26 0 21 4 25 20 21 13 -3 20 0 20 10 0 8 -4 11
-10 8 -5 -3 -10 1 -10 10 0 9 5 13 10 10 6 -3 10 0 10 8 0 9 -9 12 -30 9 -26
-4 -30 -1 -30 20 0 13 5 29 11 35 6 6 9 19 6 29 -4 16 -5 15 -6 -3 0 -13 -6
-23 -12 -23 -7 0 -9 11 -5 30 3 17 1 30 -4 30 -6 0 -10 6 -10 13 0 8 -10 13
-22 13 -21 -1 -23 4 -23 44 1 25 10 65 23 91 12 25 22 51 22 57 0 9 -116 12
-475 12 l-475 0 0 -548z"/>
<path d="M4580 4303 c0 -93 60 -206 156 -292 32 -29 69 -58 82 -64 12 -5 22
-14 22 -19 0 -17 50 -28 73 -16 38 20 97 9 97 -18 0 -18 -11 -18 -35 0 -25 18
-54 1 -48 -28 4 -20 4 -20 -10 -3 -13 16 -17 14 -51 -30 -20 -25 -36 -55 -36
-65 0 -11 -4 -16 -10 -13 -14 8 -13 -18 1 -32 17 -17 -27 -36 -65 -29 -18 4
-36 3 -39 -1 -4 -3 -31 -8 -59 -9 -35 -2 -56 -8 -64 -19 -8 -11 -53 -25 -131
-40 -188 -37 -522 -119 -853 -211 -198 -55 -598 -181 -680 -214 -25 -11 -76
-29 -113 -41 -37 -12 -65 -24 -63 -26 8 -8 215 -101 254 -114 20 -7 40 -12 45
-11 4 1 7 -2 7 -8 0 -5 16 -9 35 -8 19 1 35 5 35 10 0 5 8 7 19 3 10 -3 30 -1
45 5 18 6 25 6 21 0 -3 -6 3 -10 15 -10 13 0 19 4 14 12 -4 7 -3 8 4 4 19 -11
14 -26 -8 -26 -10 0 -25 -6 -31 -13 -7 -7 -25 -11 -41 -9 -15 2 -28 1 -28 -2
0 -5 23 -17 141 -68 22 -10 24 -14 13 -25 -14 -14 -59 -9 -70 8 -3 5 -16 9
-30 9 -13 0 -24 4 -24 9 0 16 -87 44 -116 37 -22 -6 -25 -4 -20 10 4 11 2 15
-8 11 -8 -3 -17 0 -20 8 -5 15 -11 17 -191 98 l-120 53 -75 -29 c-41 -16 -92
-33 -112 -39 -37 -10 -38 -12 -38 -57 0 -26 6 -53 13 -60 10 -11 8 -12 -10 -6
-13 3 -23 2 -23 -3 0 -5 -11 -15 -25 -22 -31 -16 -31 -21 -1 -57 32 -39 30
-63 -6 -63 -15 0 -28 -4 -28 -10 0 -14 -36 -31 -54 -24 -8 3 -18 15 -22 26 -4
15 -9 17 -17 9 -9 -9 -8 -17 1 -31 17 -27 15 -33 -8 -27 -28 7 -25 -14 5 -43
14 -13 25 -26 25 -30 0 -13 -68 -39 -88 -33 -18 4 -21 0 -20 -29 0 -54 8 -70
30 -65 16 4 17 3 7 -9 -6 -8 -18 -14 -25 -14 -8 0 -11 -6 -8 -15 4 -8 1 -15
-5 -15 -6 0 -11 -7 -11 -16 0 -11 6 -15 20 -11 36 9 79 -15 91 -51 6 -18 23
-51 37 -74 l27 -40 5 33 c3 23 8 30 13 21 7 -10 14 -7 32 13 25 26 45 33 45
14 0 -5 8 -9 18 -7 9 1 22 -1 28 -5 6 -3 26 0 43 9 31 15 33 15 57 -7 23 -22
24 -22 24 -2 0 11 -11 26 -25 33 -30 16 -32 30 -5 30 11 0 20 5 20 10 0 6 -9
10 -19 10 -11 0 -22 4 -25 9 -3 5 -22 12 -41 15 -42 8 -54 29 -31 55 9 10 33
46 54 81 31 50 46 65 78 76 108 38 171 1 213 -122 11 -33 23 -67 26 -76 6 -16
4 -16 -25 -7 -26 9 -44 8 -91 -6 -33 -10 -63 -23 -68 -29 -6 -6 -7 -30 -4 -54
l6 -42 26 19 c18 12 40 17 71 15 24 -2 50 2 57 8 10 8 18 6 32 -6 15 -13 20
-14 24 -4 4 8 6 7 6 -4 1 -10 5 -18 9 -18 14 0 30 43 35 94 3 27 10 52 16 56
9 5 9 19 2 50 -11 48 -4 100 13 106 41 14 97 11 119 -7 14 -10 27 -16 30 -13
3 3 4 -1 4 -8 -1 -7 2 -14 8 -15 5 -2 10 7 10 20 0 17 6 22 28 22 16 1 32 -6
37 -15 8 -13 9 -13 10 0 0 13 2 13 9 1 8 -12 12 -12 24 -2 22 18 29 1 31 -85
l2 -74 -40 0 -41 0 27 -25 c15 -14 31 -25 36 -25 15 0 32 -49 32 -90 0 -26 -4
-39 -12 -38 -7 2 -13 -8 -14 -21 -1 -16 7 -28 27 -40 16 -9 29 -20 29 -24 0
-5 13 -25 29 -45 16 -20 36 -57 44 -81 8 -25 23 -48 33 -52 26 -9 36 -1 24 20
-8 16 -2 19 65 24 141 12 222 63 260 163 9 24 23 44 31 44 8 0 28 7 44 15 52
27 91 145 55 171 -19 14 -18 31 9 99 25 67 20 121 -24 210 -38 79 -39 105 -5
105 8 0 15 6 18 13 3 9 15 6 46 -10 22 -12 43 -17 47 -12 9 15 24 10 24 -8 0
-15 1 -15 13 1 13 18 14 18 32 0 12 -13 33 -19 64 -19 26 0 46 -6 49 -13 2 -7
12 -12 21 -12 10 0 30 -9 45 -21 14 -11 26 -16 26 -10 0 5 12 16 28 23 21 10
28 22 32 53 5 37 7 40 34 38 16 -1 42 5 58 13 27 14 31 14 43 -3 24 -31 48
-148 40 -194 -6 -32 -4 -40 6 -34 9 6 11 3 6 -9 -8 -19 11 -97 26 -107 5 -3 8
-8 7 -10 -8 -16 31 -99 69 -146 56 -70 98 -93 170 -93 102 0 229 84 267 177
16 36 28 154 25 237 -2 42 0 48 15 42 12 -5 15 -2 9 11 -13 35 -13 52 0 63 8
7 19 9 25 5 5 -3 10 -1 10 5 0 6 -6 13 -14 16 -11 4 -13 12 -5 31 20 52 4 180
-28 230 -14 21 -13 23 21 37 38 16 86 8 86 -14 0 -5 8 -10 19 -10 10 0 25 -10
34 -22 l15 -23 18 38 c15 32 16 40 5 47 -8 4 -11 15 -8 24 5 13 19 16 67 14
52 -3 60 -6 60 -22 0 -11 8 -38 19 -60 19 -42 47 -113 51 -131 1 -5 4 -14 5
-20 11 -37 12 -56 4 -61 -5 -3 -7 -10 -3 -15 11 -18 24 2 25 39 1 20 3 30 6
21 2 -9 18 -20 36 -23 84 -18 94 -18 110 -2 9 9 21 15 28 14 7 -2 15 8 18 21
9 34 29 38 40 7 7 -18 22 -28 51 -36 23 -6 47 -9 53 -6 7 2 5 5 -4 5 -9 1 -19
7 -22 15 -9 22 5 28 19 8 9 -11 16 -13 21 -7 5 6 19 12 32 12 13 1 31 9 40 18
15 15 14 18 -8 36 -28 23 -103 26 -152 5 -22 -9 -52 -12 -84 -9 -70 8 -105 8
-142 -2 -31 -7 -33 -6 -33 18 0 14 -5 29 -10 32 -7 4 -7 12 0 25 6 10 7 21 2
24 -4 2 -7 17 -6 33 1 15 3 40 3 54 1 27 57 107 75 108 6 1 20 -8 32 -20 22
-21 51 -18 38 3 -4 7 -2 8 5 4 6 -4 19 -2 27 5 11 9 17 10 22 2 12 -19 54 -24
107 -14 47 9 53 8 98 -21 35 -23 50 -39 55 -62 3 -17 5 -35 4 -40 -2 -5 4 -23
12 -40 7 -17 17 -55 21 -83 7 -51 25 -75 25 -33 0 11 12 26 29 35 26 13 31 22
37 72 8 61 7 92 -5 108 -4 6 -18 38 -31 73 -12 34 -27 65 -31 68 -16 9 -10 21
14 29 19 6 19 8 5 12 -24 6 -23 23 2 23 11 0 27 12 37 26 15 24 18 25 30 9 11
-15 15 -16 29 -4 9 7 20 24 25 37 8 20 12 22 24 12 11 -9 19 -7 36 9 13 12 30
21 40 21 10 0 16 7 15 17 -1 12 12 21 43 30 25 7 48 18 51 24 4 6 10 10 14 10
19 -3 26 0 26 12 0 8 17 21 38 31 48 21 77 39 101 60 11 10 26 16 33 14 8 -3
0 -12 -20 -22 -40 -20 -76 -76 -96 -147 -8 -30 -19 -68 -24 -86 -11 -35 -7
-127 8 -182 5 -20 10 -45 10 -56 0 -18 -1 -18 -16 3 -8 12 -19 22 -25 22 -17
0 -9 -24 17 -51 18 -19 27 -40 28 -71 2 -23 9 -59 16 -78 7 -19 20 -55 28 -80
9 -27 34 -63 60 -90 25 -25 47 -54 49 -64 2 -10 11 -25 21 -32 14 -11 19 -11
28 1 7 10 29 15 60 15 54 0 174 53 182 80 4 12 2 13 -9 3 -8 -6 -34 -18 -59
-27 -59 -20 -146 -5 -193 35 -32 27 -32 27 -12 48 13 15 26 20 41 17 13 -4 35
-1 51 5 25 9 26 11 10 20 -27 16 -10 29 38 29 24 0 46 4 49 9 8 12 -95 31
-167 31 -42 0 -58 3 -55 13 3 6 18 14 34 17 16 3 43 13 60 22 17 9 41 14 52
11 15 -4 22 -1 22 9 0 24 -22 38 -61 38 -66 0 -82 16 -60 58 10 17 31 102 31
121 0 20 -88 71 -124 71 -43 0 -50 10 -41 66 8 55 41 95 101 123 42 20 53 21
147 13 l102 -10 47 -52 c26 -29 54 -67 62 -84 22 -47 41 -161 40 -242 l-1 -72
30 28 c26 24 30 38 40 114 8 67 7 95 -3 129 -7 23 -12 56 -11 73 1 20 -6 41
-21 60 -14 16 -36 50 -51 75 -30 54 -80 99 -107 99 -10 0 -22 5 -25 10 -3 6
-33 10 -67 10 -51 0 -61 -3 -65 -20 -4 -15 -9 -17 -23 -10 -10 6 -32 10 -49
10 -34 0 -40 16 -14 36 26 18 14 24 -35 17 -35 -5 -48 -12 -67 -41 -20 -29
-25 -32 -31 -19 -9 25 -23 21 -34 -9 -6 -14 -19 -28 -30 -31 -11 -3 -20 -9
-20 -14 0 -5 -5 -9 -11 -9 -6 0 -29 -13 -53 -29 -30 -21 -49 -28 -69 -24 -21
4 -26 2 -22 -10 4 -9 -5 -23 -24 -37 -17 -12 -31 -29 -32 -38 0 -11 -3 -12 -6
-4 -7 18 -19 15 -76 -21 -70 -44 -128 -68 -152 -63 -11 3 -23 5 -27 5 -13 2
-9 31 5 31 6 0 23 9 37 20 19 14 28 16 38 7 10 -8 15 -8 21 1 4 7 15 10 25 6
10 -4 25 1 36 11 19 17 19 19 2 31 -16 12 -15 13 5 14 12 0 25 5 28 10 3 6 17
10 31 10 14 0 23 4 19 10 -3 5 13 19 35 32 22 13 40 29 40 36 0 21 -35 13 -60
-13 -30 -32 -54 -33 -44 -2 3 12 10 23 14 25 4 1 16 9 26 17 15 11 16 16 7 26
-17 17 -86 -6 -133 -43 -19 -15 -42 -28 -51 -28 -8 0 -26 -12 -40 -27 -19 -20
-20 -25 -6 -20 12 5 20 1 25 -13 7 -19 8 -19 40 2 23 14 31 25 27 38 -7 22 13
37 21 16 3 -8 14 -18 25 -21 25 -8 24 -35 -1 -35 -13 0 -25 -10 -32 -27 -9
-23 -12 -25 -15 -10 -5 21 -40 15 -60 -10 -10 -13 -14 -12 -29 6 -13 14 -20
17 -25 9 -4 -7 -1 -17 6 -22 12 -9 12 -13 -1 -24 -11 -10 -14 -10 -14 0 0 7
-7 2 -16 -10 -17 -24 -35 -28 -65 -12 -17 10 -18 13 -5 25 8 8 19 15 24 15 6
0 8 10 5 21 -6 21 -7 21 -20 4 -7 -11 -13 -16 -13 -13 0 4 -12 1 -26 -7 -30
-15 -60 -9 -45 9 5 6 10 19 12 30 5 23 92 59 108 43 8 -8 11 -6 11 6 0 10 8
21 18 24 9 4 31 17 48 30 17 13 35 23 40 23 6 0 16 6 23 13 6 6 24 12 39 12
21 0 28 5 30 23 2 13 10 26 18 29 34 13 9 23 -51 19 -51 -3 -75 -10 -105 -31
-31 -22 -43 -25 -54 -16 -11 9 -18 7 -33 -11 -17 -22 -141 -88 -165 -88 -6 0
-19 -6 -27 -14 -14 -13 -19 -13 -36 0 -17 13 -18 16 -5 24 8 6 21 8 28 5 6 -2
12 0 12 5 0 5 19 20 43 32 39 21 62 27 112 29 11 1 14 3 8 6 -21 8 -15 33 7
33 11 0 20 5 20 12 0 17 -182 3 -221 -17 -32 -17 -59 -8 -59 20 0 14 118 28
195 24 22 -1 76 3 120 10 130 18 754 19 905 1 41 -5 105 -11 143 -14 l67 -5 0
106 0 106 -87 -8 c-360 -32 -1104 -7 -1221 42 -29 12 -31 16 -21 35 11 20 16
21 112 14 55 -3 130 -11 166 -16 86 -13 159 -17 426 -26 217 -6 370 1 548 28
l77 11 0 114 0 113 -234 0 c-197 0 -235 -2 -240 -15 -6 -16 -35 -10 -48 9 -6
8 -12 6 -19 -4 -8 -11 -12 -12 -16 -2 -3 9 -58 12 -224 12 -188 0 -219 -2
-219 -15 0 -8 -6 -15 -14 -15 -8 0 -21 7 -30 15 -11 12 -41 15 -135 15 -74 0
-121 -4 -121 -10 0 -5 -7 -10 -15 -10 -8 0 -15 5 -15 10 0 16 -47 12 -54 -5
-3 -8 -15 -15 -26 -15 -11 0 -23 7 -26 15 -5 13 -47 15 -290 15 -166 0 -284
-4 -284 -9 0 -5 57 -28 128 -51 152 -50 172 -62 172 -96 0 -25 -2 -26 -37 -19
-21 4 -49 9 -63 11 -36 5 -49 9 -109 27 -30 9 -65 17 -78 17 -14 0 -21 4 -18
10 3 6 0 10 -8 10 -8 0 -28 7 -43 15 -16 8 -37 15 -47 15 -10 0 -25 7 -33 15
-8 8 -20 12 -28 9 -7 -3 -18 1 -24 9 -7 8 -23 12 -37 9 -18 -3 -25 0 -25 12 0
19 -46 22 -53 4 -4 -10 -6 -10 -6 0 -1 9 -27 12 -96 12 l-95 0 0 -47z m955
-306 c17 -13 17 -14 -1 -12 -11 0 -26 5 -33 10 -11 6 -13 4 -7 -11 5 -10 10
-28 13 -39 4 -18 3 -18 -7 -2 -6 9 -15 17 -20 17 -15 0 -12 -36 5 -50 17 -14
9 -34 -11 -26 -19 7 -18 -3 2 -25 14 -16 14 -19 -5 -38 -27 -27 -28 -51 -1
-44 13 4 22 -1 27 -13 3 -11 12 -23 20 -27 7 -4 13 -15 13 -22 0 -17 36 -20
46 -4 4 8 10 7 18 -1 8 -9 8 -14 -2 -17 -6 -3 -9 -9 -6 -14 3 -6 11 -5 20 2 9
8 18 8 27 2 15 -12 47 -13 47 -1 0 4 -4 8 -10 8 -5 0 -10 7 -10 15 0 29 25 15
27 -15 1 -17 -2 -30 -7 -30 -5 0 -7 -6 -4 -13 7 -18 -36 -36 -70 -30 -25 5
-27 3 -22 -15 5 -14 0 -25 -16 -36 -29 -20 -66 -21 -70 0 -2 13 -7 12 -26 -6
-23 -21 -24 -21 -37 -4 -8 11 -15 27 -15 36 0 15 -5 14 -36 -7 -20 -14 -43
-25 -50 -25 -8 0 -14 -4 -14 -10 0 -15 44 -12 66 5 23 17 38 19 28 4 -3 -6 0
-16 7 -21 11 -7 11 -11 1 -15 -15 -6 -6 -23 12 -23 7 0 22 9 34 21 21 19 25
19 51 6 21 -11 32 -12 40 -4 8 8 11 6 11 -5 0 -9 -5 -20 -10 -23 -6 -4 -8 -11
-4 -16 6 -10 -13 -39 -26 -39 -5 0 -6 9 -3 20 4 16 2 19 -11 14 -9 -3 -16 -2
-16 4 0 6 6 13 13 15 6 3 8 6 2 6 -5 0 -17 -3 -25 -9 -12 -7 -12 -12 4 -28 17
-19 16 -21 -3 -34 -12 -8 -18 -17 -15 -20 3 -4 -2 -20 -10 -37 -22 -42 -20
-45 13 -20 16 12 27 27 25 34 -5 13 12 23 64 35 30 7 44 -2 22 -15 -6 -4 -9
-9 -7 -13 2 -4 -4 -15 -15 -24 -10 -10 -18 -16 -18 -14 0 3 -14 0 -31 -6 -20
-7 -27 -13 -19 -18 9 -6 9 -9 0 -15 -7 -4 -15 -3 -19 3 -4 6 -15 9 -26 7 -11
-2 -23 -4 -26 -4 -9 -1 -49 -38 -49 -45 0 -3 9 -1 20 6 21 13 36 6 25 -11 -10
-17 -75 -13 -81 4 -8 21 -20 19 -57 -9 -27 -20 -34 -22 -44 -11 -7 8 -9 16 -4
19 5 4 7 15 4 26 -3 12 -2 20 3 19 22 -4 34 2 34 16 0 8 -2 15 -4 15 -2 0 -12
3 -22 7 -13 5 -16 3 -11 -10 3 -9 0 -20 -7 -24 -7 -5 -17 -17 -23 -27 -10 -19
-11 -19 -17 0 -3 11 -16 24 -28 29 -18 8 -23 19 -24 47 -1 21 -7 44 -13 52 -8
9 -10 24 -5 38 4 13 7 30 5 38 -2 8 20 -9 47 -38 55 -57 63 -62 55 -32 -3 11
-10 20 -16 20 -8 0 -8 3 0 11 6 6 9 17 6 25 -2 7 5 19 16 26 31 19 26 28 -18
28 -51 0 -60 15 -22 35 41 21 48 19 76 -12 13 -16 25 -23 25 -17 0 6 -7 17
-15 24 -24 20 -19 69 8 79 12 5 27 6 34 4 7 -3 10 3 6 16 -4 15 -1 21 10 21
34 0 87 33 87 54 -1 19 -3 19 -25 -6 -13 -16 -29 -28 -35 -28 -17 0 -11 45 8
71 20 25 36 99 23 99 -5 0 -14 -7 -21 -15 -17 -21 -27 -11 -23 22 3 18 17 37
36 51 18 12 41 33 52 46 22 28 61 33 90 13z m-830 -579 c17 -1 36 1 42 5 7 5
21 3 30 -2 11 -6 13 -11 5 -11 -7 0 -12 -6 -11 -12 4 -35 -2 -48 -23 -48 -22
-1 -22 -1 -3 -12 11 -6 23 -16 27 -22 4 -6 10 -7 15 -3 4 5 1 12 -6 16 -7 5
-11 14 -7 20 9 14 73 4 104 -15 19 -13 22 -13 22 1 0 13 -12 19 -32 16 -5 0
-8 4 -8 10 0 7 7 8 18 4 9 -4 32 -11 49 -17 31 -8 53 -33 53 -57 0 -6 -7 -8
-15 -5 -8 4 -15 12 -15 19 0 8 -5 17 -12 21 -8 5 -9 2 -5 -10 6 -16 -2 -17
-86 -15 -50 1 -101 -2 -111 -6 -13 -6 -21 -4 -24 4 -3 10 -6 10 -12 2 -3 -7
-14 -9 -24 -5 -13 5 -16 14 -12 33 3 14 3 20 0 14 -4 -10 -11 -10 -25 -2 -29
15 -13 29 32 29 49 0 49 20 1 32 -18 5 -32 13 -32 19 0 6 8 8 18 5 9 -3 31 -6
47 -8z m1979 -117 c-4 -14 -18 -54 -31 -88 -13 -33 -23 -67 -22 -75 4 -29 -2
-38 -26 -38 -18 0 -28 7 -35 25 -5 14 -19 45 -30 69 -21 47 -27 106 -10 106 6
0 10 -4 10 -9 0 -5 15 -4 35 2 19 6 35 14 35 19 0 4 7 8 15 8 8 0 15 4 15 9 0
4 11 6 25 3 21 -4 24 -8 19 -31z m-1831 -317 c13 -17 29 -24 52 -24 18 0 38
-6 45 -14 6 -8 18 -12 26 -9 19 7 18 -11 -1 -27 -8 -7 -15 -18 -15 -25 0 -23
-37 -55 -71 -62 -38 -7 -93 -41 -96 -60 -2 -7 0 -13 5 -13 4 0 20 -11 36 -25
30 -25 84 -36 70 -13 -5 7 -2 9 8 5 9 -3 24 1 35 8 10 8 26 15 35 15 9 0 20
10 23 21 6 19 9 20 22 6 21 -21 9 -50 -17 -42 -14 5 -20 2 -20 -10 0 -9 4 -14
10 -10 31 19 58 -123 39 -201 -9 -35 -20 -51 -43 -65 -18 -10 -41 -32 -53 -47
-14 -19 -34 -31 -57 -35 -43 -7 -98 12 -94 32 4 18 116 89 141 90 10 1 17 7
14 14 -3 8 -23 11 -66 8 -52 -2 -65 0 -76 15 -23 30 -18 44 15 44 27 0 30 3
30 33 -1 38 -30 77 -59 77 -15 0 -23 10 -32 40 -8 28 -23 47 -50 65 -22 14
-39 28 -39 31 0 3 11 20 25 38 24 31 24 32 5 44 -24 15 -26 35 -5 52 14 12 14
15 -1 31 -16 18 -16 19 12 19 17 0 34 4 40 9 28 27 80 19 107 -15z m-1578
-184 c4 -6 11 -8 16 -5 5 4 9 -6 9 -21 0 -15 -3 -24 -6 -21 -4 3 -14 2 -24 -3
-9 -5 -30 -12 -46 -14 -16 -3 -65 -15 -109 -26 -111 -27 -125 -27 -124 8 0 15
3 21 6 15 2 -7 9 -13 14 -13 6 0 7 5 3 12 -5 8 -2 9 10 5 10 -4 15 -3 11 3 -3
5 10 12 30 16 19 3 32 10 29 15 -3 5 10 9 28 10 18 0 56 7 83 14 66 17 63 16
70 5z m350 -369 c10 -23 31 -25 108 -7 16 4 27 2 27 -4 0 -5 -3 -10 -7 -10 -5
0 -7 -31 -5 -69 2 -42 -2 -85 -11 -112 -12 -37 -20 -45 -43 -47 -16 -2 -35 -8
-41 -14 -9 -7 -15 -5 -19 7 -5 12 -16 15 -42 13 -20 -2 -37 2 -39 8 -4 13 41
29 71 25 18 -3 66 42 66 61 0 16 -28 64 -46 79 -16 13 -17 12 -12 -8 4 -13 2
-23 -3 -23 -5 0 -9 5 -9 11 0 6 -7 8 -16 5 -13 -5 -14 -4 -5 7 7 10 8 29 2 61
-9 50 5 60 24 17z"/>
<path d="M1345 3760 c-6 -9 -45 -120 -45 -127 0 -1 7 -3 15 -3 8 0 15 7 15 15
0 10 10 15 30 15 18 0 33 -6 36 -15 4 -8 19 -15 35 -15 31 0 49 23 49 64 0 19
5 26 20 26 17 0 20 -7 20 -45 0 -25 5 -45 10 -45 6 0 10 25 10 55 l0 55 -40 0
c-38 0 -40 -2 -40 -29 0 -24 -21 -61 -34 -61 -2 0 -13 27 -25 60 -21 56 -41
74 -56 50z"/>
<path d="M7841 3550 c-7 -27 -17 -52 -22 -56 -12 -7 -11 -74 1 -74 6 0 10 9
10 20 0 17 7 20 50 20 43 0 50 -3 50 -20 0 -11 5 -20 10 -20 6 0 10 16 10 35
0 19 -4 35 -10 35 -5 0 -10 25 -10 55 l0 55 -38 0 c-37 0 -38 -1 -51 -50z"/>
<path d="M6460 2930 c0 -11 7 -20 15 -20 19 0 65 -50 65 -71 0 -9 -7 -20 -16
-23 -16 -6 -11 -26 7 -26 6 0 8 4 5 8 -3 5 1 9 9 9 17 0 14 -89 -3 -95 -7 -2
-12 -11 -12 -19 0 -9 -6 -13 -15 -10 -8 4 -17 2 -20 -4 -4 -5 -1 -8 7 -7 9 2
12 -5 10 -22 -5 -33 -10 -37 -25 -18 -19 25 -129 96 -160 103 -21 6 -27 4 -27
-10 0 -9 4 -14 9 -11 11 7 22 -31 14 -49 -2 -8 -12 -11 -21 -8 -11 4 -8 -2 7
-15 13 -12 29 -22 34 -22 6 0 2 -10 -9 -22 -10 -12 -14 -19 -8 -15 6 3 11 0
11 -8 0 -9 -5 -14 -11 -13 -18 2 -46 -13 -41 -22 3 -5 1 -11 -5 -15 -14 -9
-13 -58 2 -73 10 -10 10 -15 -1 -21 -13 -8 55 -70 221 -200 l67 -52 38 16 c29
12 34 18 23 25 -12 8 -12 10 3 16 9 3 15 10 12 15 -5 7 41 20 80 24 6 1 9 6 7
13 -1 7 5 12 13 12 21 0 65 29 65 43 0 6 -11 0 -25 -13 -23 -22 -25 -22 -25
-4 0 26 11 41 35 47 16 4 15 5 -6 6 -36 1 -42 11 -18 32 15 13 17 19 7 23 -7
3 -3 4 10 2 12 -2 22 1 22 7 0 6 3 8 6 4 3 -3 24 1 45 8 22 8 56 16 77 19 20
2 48 9 62 14 14 5 40 7 58 5 l32 -5 0 111 c0 67 -4 111 -10 111 -5 0 -10 5
-10 11 0 5 5 7 12 3 7 -4 8 -3 4 4 -4 7 -13 12 -21 12 -7 0 -16 12 -19 26 -4
14 -12 23 -19 21 -7 -2 -19 0 -28 4 -14 7 -17 3 -15 -24 2 -21 -3 -36 -15 -45
-10 -7 -16 -19 -13 -27 4 -10 0 -15 -10 -15 -9 0 -19 -6 -22 -14 -7 -19 -54
-18 -54 1 0 10 -7 14 -20 10 -11 -3 -20 -1 -20 4 0 4 -7 6 -16 2 -9 -3 -11 -9
-6 -12 5 -3 12 -16 16 -28 5 -17 3 -21 -11 -18 -10 2 -22 4 -26 4 -5 1 -6 5
-3 10 3 5 0 11 -8 14 -7 3 -18 25 -24 50 -12 46 -42 85 -42 53 0 -25 -17 -19
-30 12 -35 85 -66 120 -127 147 -18 8 -33 19 -33 24 0 6 -13 11 -30 11 -23 0
-30 -4 -30 -20z"/>
<path d="M5535 2835 c30 -30 51 -66 58 -101 6 -30 4 -32 -26 -37 -19 -3 -49 2
-72 12 -48 20 -75 17 -75 -10 0 -10 3 -19 8 -19 4 0 19 -10 34 -23 14 -12 36
-29 47 -37 16 -11 20 -21 16 -42 -5 -20 -1 -30 14 -40 23 -14 27 -48 9 -77
-10 -16 -7 -26 15 -60 15 -23 23 -41 17 -41 -5 0 -10 4 -10 9 0 5 -21 19 -46
30 -26 12 -48 31 -51 42 -7 27 -66 53 -107 46 -25 -4 -36 -1 -47 14 -17 23
-32 24 -50 2 -12 -15 -12 -16 4 -10 12 4 17 1 17 -9 0 -10 6 -14 15 -10 8 3
15 1 15 -3 0 -5 14 -24 30 -42 17 -17 29 -38 26 -45 -3 -7 4 -24 14 -37 23
-28 23 -68 0 -64 -8 1 -14 -4 -12 -10 1 -7 -3 -13 -9 -13 -6 0 -8 -9 -4 -20 3
-11 2 -27 -3 -36 -8 -15 -10 -15 -15 0 -4 9 -14 16 -23 16 -21 0 -71 35 -109
77 -19 20 -40 33 -55 33 -14 0 -34 7 -44 15 -27 20 -53 20 -36 1 6 -8 18 -12
27 -9 13 5 14 3 3 -17 -10 -18 -9 -24 1 -31 8 -5 18 -9 22 -9 5 0 7 -9 5 -19
-2 -11 8 -28 21 -40 l24 -21 -23 0 c-19 0 -20 -2 -10 -15 10 -12 10 -15 -4
-15 -9 0 -16 -7 -16 -15 0 -8 7 -15 15 -15 28 0 15 -15 -32 -37 -35 -16 -51
-19 -60 -11 -17 14 -18 -13 -1 -30 9 -9 7 -12 -9 -12 -11 0 -33 -3 -49 -6 -33
-6 -74 22 -74 50 0 10 -7 24 -15 32 -13 14 -15 -11 -15 -225 0 -163 3 -241 11
-241 5 0 7 -5 3 -11 -4 -8 11 -10 50 -7 41 2 55 0 52 -9 -6 -14 36 -8 99 14
52 19 90 26 142 27 24 1 43 3 43 6 0 3 16 6 35 7 24 1 33 -2 29 -9 -5 -8 -1
-9 11 -5 9 4 24 2 31 -4 11 -9 14 -9 14 0 0 7 5 9 10 6 14 -8 52 4 45 15 -9
15 14 21 36 10 15 -9 24 -9 32 -1 8 8 8 11 -1 11 -19 0 -14 14 9 25 12 6 22
15 22 20 1 9 46 30 92 41 20 5 20 5 1 -10 -23 -18 -14 -21 15 -5 11 5 17 14
14 18 -3 5 18 23 45 41 51 32 69 51 28 28 -13 -7 -34 -13 -48 -15 -28 -2 76
49 124 61 16 4 26 9 24 12 -3 2 -35 -5 -72 -17 -38 -11 -71 -18 -74 -14 -9 9
21 26 36 20 6 -2 12 2 12 10 0 8 6 15 14 15 7 0 19 7 26 15 10 12 9 15 -8 15
-11 0 -23 7 -26 16 -5 12 -1 14 15 9 13 -4 19 -3 16 2 -7 12 50 10 76 -1 10
-5 34 -6 54 -3 21 4 42 2 50 -5 8 -6 13 -6 13 -1 0 6 12 10 28 11 15 0 40 8
57 16 41 21 129 40 150 32 14 -5 15 -9 5 -21 -13 -16 0 -21 16 -6 13 14 88 26
81 14 -4 -6 14 -3 38 5 25 8 42 18 39 23 -3 5 -19 2 -35 -7 -17 -8 -33 -13
-36 -10 -3 3 6 10 21 15 14 6 26 16 26 22 0 8 -4 8 -14 0 -11 -9 -16 -9 -22 0
-4 8 -3 9 4 5 7 -4 12 -2 12 4 0 5 17 18 38 26 20 9 45 20 54 25 24 12 58 11
58 -1 0 -5 7 -7 15 -4 8 4 15 10 15 15 0 9 -409 339 -420 339 -3 0 -11 -9 -18
-21 -8 -12 -9 -18 -3 -15 7 5 8 1 5 -9 -4 -9 -9 -13 -12 -10 -6 6 -36 -55 -33
-68 1 -5 -11 -7 -26 -6 -16 2 -38 -3 -50 -9 -19 -11 -23 -10 -23 3 0 9 -7 18
-15 21 -8 4 -15 12 -15 19 0 7 -7 19 -17 26 -19 17 -90 22 -74 6 7 -7 5 -14
-6 -23 -15 -10 -15 -16 -5 -39 11 -24 10 -27 -8 -32 -11 -3 -17 -9 -15 -14 3
-4 -9 -6 -27 -4 -18 2 -50 6 -72 9 -45 6 -45 5 -49 36 -2 12 -11 28 -21 35
-13 10 -14 18 -7 38 6 14 7 41 4 60 -3 23 0 38 11 50 9 9 20 25 24 36 7 20 8
20 40 -9 83 -76 203 -50 276 60 30 46 41 83 31 107 -4 10 -8 32 -9 48 -1 30
-2 30 -59 31 -31 1 -59 -2 -62 -6 -7 -12 23 -40 44 -40 20 0 71 -22 71 -31 0
-9 -41 -44 -49 -41 -3 1 -9 -15 -12 -37 -6 -46 -33 -81 -61 -81 -11 0 -28 -5
-39 -10 -15 -8 -19 -7 -19 5 0 8 5 15 10 15 6 0 10 5 10 10 0 6 -12 10 -26 10
-21 0 -25 -4 -21 -19 4 -17 2 -19 -21 -10 -13 5 -29 12 -34 15 -16 10 13 34
41 34 29 0 71 25 71 41 0 15 -81 1 -101 -17 -8 -8 -23 -14 -33 -14 -23 0 -76
50 -76 72 0 10 -20 45 -45 79 -25 34 -45 56 -45 49 0 -10 -4 -10 -18 1 -10 8
-9 5 3 -6z"/>
<path d="M4415 2419 c-5 -8 -4 -10 3 -5 19 12 33 -3 23 -23 -7 -12 -6 -26 3
-43 14 -26 14 -94 0 -175 -4 -30 -3 -43 5 -43 6 0 11 -7 11 -15 0 -18 -2 -18
-33 -4 -14 6 -30 21 -37 33 -16 30 -58 59 -77 52 -14 -6 -14 -9 3 -27 16 -17
16 -22 4 -29 -13 -8 -12 -10 2 -10 17 0 17 -2 1 -42 -9 -24 -31 -58 -50 -76
-18 -18 -33 -37 -33 -41 0 -5 -9 -11 -20 -14 -18 -4 -19 -9 -10 -33 16 -40 -4
-53 -26 -18 -10 16 -33 43 -51 60 -18 18 -33 38 -33 47 0 17 -40 46 -57 40 -7
-3 -9 -21 -6 -54 4 -44 2 -50 -18 -57 -15 -6 -18 -11 -11 -16 16 -10 15 -26
-2 -26 -8 0 -16 -6 -19 -12 -3 -10 -10 -8 -25 5 -20 18 -21 18 -36 -12 -16
-30 -34 -36 -48 -16 -5 7 -8 7 -8 0 0 -6 -17 -10 -39 -8 -31 1 -41 -3 -50 -20
-11 -21 -11 -20 -7 6 2 18 -2 31 -10 34 -8 3 -14 11 -14 19 0 8 -4 14 -10 14
-5 0 -10 -4 -10 -9 0 -21 -48 -61 -72 -61 -14 0 -32 -9 -39 -19 -23 -32 -54
-35 -83 -8 -20 19 -26 36 -31 93 -6 65 -25 116 -25 65 0 -12 -4 -19 -10 -16
-5 3 -10 14 -10 24 0 24 -42 42 -112 48 -32 3 -58 9 -58 13 0 4 -18 12 -41 19
-23 7 -47 15 -55 18 -11 4 -14 -6 -12 -47 2 -48 4 -51 25 -47 13 2 23 1 23 -3
0 -4 8 -10 19 -13 22 -5 35 -57 18 -74 -17 -18 -80 3 -93 30 -5 11 -15 22 -21
25 -23 7 -13 -32 13 -57 17 -17 24 -32 21 -48 -3 -14 1 -23 9 -23 21 0 27 -39
10 -65 -18 -28 -46 -33 -46 -10 0 9 -10 19 -23 24 -13 5 -29 16 -36 25 -7 9
-19 16 -27 16 -7 0 -15 9 -19 19 -8 26 -35 35 -53 17 -12 -12 -13 -18 -4 -29
7 -8 18 -32 26 -53 11 -34 11 -43 -2 -71 -9 -18 -22 -33 -29 -33 -7 0 -20 -16
-28 -36 -12 -30 -18 -34 -29 -25 -8 7 -18 25 -21 41 -4 16 -15 32 -25 35 -10
3 -29 16 -42 28 -14 12 -39 32 -57 45 l-32 23 7 -38 c3 -21 13 -53 20 -71 19
-47 4 -75 -32 -62 -35 14 -36 13 -23 -11 9 -17 8 -25 -5 -37 -12 -13 -18 -13
-30 -2 -12 9 -23 10 -43 2 -58 -22 -89 -22 -107 -1 -9 11 -20 17 -25 15 -5 -3
-14 1 -21 9 -25 30 -30 13 -30 -100 l0 -115 530 0 c482 0 532 2 549 17 22 18
29 20 113 32 34 4 64 3 74 -2 10 -6 63 -9 118 -7 144 4 145 4 139 13 -2 4 3 7
11 7 9 0 16 -5 16 -11 0 -12 55 -8 108 7 15 4 22 2 22 -8 0 -23 65 -21 138 4
37 12 69 25 72 28 3 3 41 14 84 23 85 18 133 44 61 32 -38 -5 -37 -4 20 21 72
32 73 32 55 45 -11 8 -6 9 18 5 33 -6 33 -5 27 23 -6 26 -3 30 23 36 16 3 39
15 51 26 11 11 21 15 21 10 0 -6 6 -8 13 -6 11 4 73 12 105 14 15 1 18 446 2
456 -5 3 -10 -1 -10 -9 0 -24 -22 -66 -31 -60 -5 3 -9 -9 -9 -25 0 -18 -5 -31
-12 -31 -7 0 -24 -3 -37 -7 -16 -4 -22 -3 -17 5 3 6 2 13 -3 16 -9 6 -26 -22
-23 -36 1 -5 -5 -8 -14 -8 -8 0 -12 5 -9 10 3 6 -1 10 -9 10 -17 0 -50 55 -41
70 3 5 -2 27 -10 48 -9 22 -15 46 -14 53 1 8 -4 29 -11 48 l-13 34 -17 -23
c-12 -16 -23 -21 -36 -16 -14 6 -16 9 -5 15 11 7 11 10 0 14 -12 5 -11 8 1 19
34 30 41 56 26 92 -22 53 -113 105 -131 75z"/>
<path d="M2703 2179 c-34 -15 -43 -25 -43 -44 0 -23 13 -31 43 -26 4 0 7 -3 7
-9 0 -12 -29 -19 -105 -24 -33 -3 -61 -5 -62 -5 -2 -1 -3 -10 -3 -21 0 -17 3
-19 19 -10 26 13 151 13 151 0 0 -6 -12 -16 -27 -23 -16 -6 -30 -14 -33 -18
-3 -3 -12 -8 -20 -11 -10 -3 -1 -12 28 -27 35 -18 42 -19 42 -6 0 10 10 15 30
15 39 0 38 -13 -5 -45 -33 -26 -36 -27 -87 -14 -62 15 -72 22 -73 51 0 27 -42
36 -48 10 -2 -11 -7 -6 -13 17 -5 19 -20 41 -32 49 -20 13 -22 13 -22 -6 0
-12 5 -24 10 -27 6 -3 10 -13 10 -21 0 -19 56 -75 109 -108 81 -51 179 -28
237 55 32 46 81 153 91 199 l6 25 -26 -23 c-14 -13 -31 -38 -38 -54 l-12 -30
-14 27 c-10 18 -20 25 -33 22 -32 -8 -45 9 -42 57 1 26 1 46 -1 46 -1 -1 -21
-10 -44 -21z"/>
<path d="M7065 2031 c-6 -6 -47 -28 -92 -51 -46 -23 -83 -45 -83 -50 0 -5 45
-45 100 -90 l100 -81 0 141 c0 133 -4 152 -25 131z"/>
<path d="M6803 1894 c-12 -9 -28 -17 -35 -18 -28 -6 -68 -26 -86 -43 -10 -10
-36 -19 -61 -21 -38 -2 -100 -33 -109 -54 -2 -5 -11 -8 -19 -8 -9 0 -13 -6 -9
-15 4 -11 -3 -19 -20 -25 -31 -12 -37 -12 -30 -1 10 15 -77 -11 -103 -31 -13
-10 -29 -18 -35 -18 -7 0 -18 -6 -24 -12 -7 -7 -18 -13 -25 -13 -22 -1 -127
-36 -132 -45 -2 -4 -22 -11 -42 -15 -21 -3 -58 -18 -83 -32 -25 -14 -58 -25
-74 -24 -16 1 -36 -5 -45 -12 -26 -22 -139 -60 -161 -54 -11 3 -39 -4 -62 -15
-23 -11 -72 -25 -108 -30 -72 -11 -92 -18 -98 -36 -3 -9 155 -12 658 -12 l662
0 -4 30 c-3 17 -1 30 3 30 3 0 12 -13 19 -30 13 -31 34 -40 43 -17 4 10 6 10
6 0 1 -7 6 -13 12 -13 8 0 10 19 6 63 l-6 62 17 -48 c10 -27 21 -45 25 -41 4
4 7 -2 7 -14 0 -15 6 -22 20 -22 11 0 20 5 20 10 0 6 -7 10 -16 10 -8 0 -12 5
-9 10 4 6 10 8 15 5 5 -3 12 -1 15 5 5 8 12 7 23 -2 14 -11 15 -10 8 7 -8 23
-9 25 -7 43 2 22 21 3 21 -21 0 -12 5 -29 11 -37 9 -12 10 -11 6 7 -4 16 -1
20 10 16 13 -5 13 -2 4 15 -6 11 -11 31 -10 44 0 13 3 17 6 10 7 -18 23 -4 17
16 -6 21 12 -16 21 -43 5 -16 8 -17 15 -5 8 12 10 10 10 -7 0 -13 5 -23 10
-23 6 0 10 56 10 148 l0 148 -115 93 c-92 74 -119 91 -136 86 -14 -5 -19 -4
-15 4 9 14 6 13 -21 -5z"/>
<path d="M5057 823 c-4 -3 -7 -14 -7 -23 0 -8 -9 -33 -20 -55 -24 -47 -27 -95
-5 -95 8 0 15 9 15 20 0 17 7 20 45 20 38 0 45 -3 45 -20 0 -11 5 -20 11 -20
8 0 10 16 5 53 -3 28 -6 69 -6 90 0 36 -1 37 -38 37 -21 0 -42 -3 -45 -7z"/>
</g>
</svg>
